<svg width="1920" height="1080" viewBox="0 0 1920 1080" xmlns="http://www.w3.org/2000/svg"><rect width="1920" height="1080" fill="#2c3333"/><path d="M 0,1080 C 0,1080 0,540 0,540 C 15.517772260787737,599.250472317519 31.035544521575474,658.500944635038 56,641 C 80.96445547842453,623.499055364962 115.37559417448585,529.2466937773668 138,508 C 160.62440582551415,486.7533062226332 171.46207878048116,538.5122802554948 187,599 C 202.53792121951884,659.4877197445052 222.7760907035896,728.7041852006544 245,670 C 267.2239092964104,611.2958147993456 291.4335584051606,424.67097894188794 314,361 C 336.5664415948394,297.32902105811206 357.48967567576796,356.611899031794 379,445 C 400.51032432423204,533.388100968206 422.6077388917675,650.8814249309362 447,607 C 471.3922611082325,563.1185750690638 498.079368757162,357.86240124446107 517,392 C 535.920631242838,426.13759875553893 547.0747860795844,699.6689700912195 566,728 C 584.9252139204156,756.3310299087805 611.6214869245006,539.4617183906608 634,462 C 656.3785130754994,384.53828160933915 674.4392662224132,446.4841563461371 696,432 C 717.5607337775868,417.5158436538629 742.6214481858468,326.6016562247904 767,407 C 791.3785518141532,487.3983437752096 815.0749410341995,739.1092187547015 839,733 C 862.9250589658005,726.8907812452985 887.0787876773554,462.96146875640335 906,380 C 924.9212123226446,297.03853124359665 938.6099082563783,395.044906219685 959,468 C 979.3900917436217,540.955093780315 1006.4815792971312,588.8589063648569 1027,543 C 1047.5184207028688,497.14109363514314 1061.4637745550963,357.5194683208874 1081,370 C 1100.5362254449037,382.4805316791126 1125.663322482483,547.0632203515933 1146,616 C 1166.336677517517,684.9367796484067 1181.8829355149717,658.2276502727395 1206,650 C 1230.1170644850283,641.7723497272605 1262.8049354576297,652.0261785574484 1283,666 C 1303.1950645423703,679.9738214425516 1310.8973226545095,697.667635497467 1332,630 C 1353.1026773454905,562.332364502533 1387.605773924331,409.3032794526836 1412,406 C 1436.394226075669,402.6967205473164 1450.679581648165,549.1192466917983 1473,579 C 1495.320418351835,608.8807533082017 1525.6758994830084,522.2197337801231 1547,500 C 1568.3241005169916,477.780266219877 1580.6168204198007,520.0018181877094 1601,544 C 1621.3831795801993,567.9981818122906 1649.856818837788,573.7729934690392 1674,523 C 1698.143181162212,472.2270065309608 1717.9559042290466,364.90620793613374 1738,357 C 1758.0440957709534,349.09379206386626 1778.319564246026,440.6021747864255 1798,531 C 1817.680435753974,621.3978252135745 1836.7658387868494,710.6850929181642 1857,712 C 1877.2341612131506,713.3149070818358 1898.6170806065752,626.6574535409179 1920,540 C 1920,540 1920,1080 1920,1080 Z" fill="#18171c" opacity="0.3"/></svg>